<mxfile host="app.diagrams.net" modified="2020-07-14T16:15:04.099Z" agent="5.0 (Macintosh; Intel Mac OS X 10_15_5) AppleWebKit/537.36 (KHTML, like Gecko) Chrome/83.0.4103.116 Safari/537.36" etag="aAGhWjI0FqFFfqsvl-FL" version="13.4.3" type="github">
  <diagram id="Wpa0ky7Mlm2PwS4TCJrk" name="Page-1">
    <mxGraphModel dx="2066" dy="1066" grid="1" gridSize="10" guides="1" tooltips="1" connect="1" arrows="1" fold="1" page="1" pageScale="1" pageWidth="827" pageHeight="1169" math="0" shadow="0">
      <root>
        <mxCell id="0" />
        <mxCell id="1" parent="0" />
        <mxCell id="UF84lUJFQAQI1_FwRA6l-1" value="" style="rounded=1;whiteSpace=wrap;html=1;" vertex="1" parent="1">
          <mxGeometry x="170" y="20" width="610" height="280" as="geometry" />
        </mxCell>
        <mxCell id="UF84lUJFQAQI1_FwRA6l-2" value="" style="rounded=1;whiteSpace=wrap;html=1;" vertex="1" parent="1">
          <mxGeometry x="180" y="440" width="500" height="230" as="geometry" />
        </mxCell>
        <mxCell id="UF84lUJFQAQI1_FwRA6l-3" style="edgeStyle=orthogonalEdgeStyle;rounded=0;orthogonalLoop=1;jettySize=auto;html=1;exitX=1;exitY=0.75;exitDx=0;exitDy=0;entryX=0;entryY=0.5;entryDx=0;entryDy=0;endArrow=none;endFill=0;" edge="1" parent="1" source="UF84lUJFQAQI1_FwRA6l-6" target="UF84lUJFQAQI1_FwRA6l-16">
          <mxGeometry relative="1" as="geometry">
            <Array as="points">
              <mxPoint x="410" y="515" />
              <mxPoint x="410" y="565" />
            </Array>
          </mxGeometry>
        </mxCell>
        <mxCell id="UF84lUJFQAQI1_FwRA6l-4" style="edgeStyle=orthogonalEdgeStyle;rounded=0;orthogonalLoop=1;jettySize=auto;html=1;exitX=0.5;exitY=1;exitDx=0;exitDy=0;entryX=0.5;entryY=0;entryDx=0;entryDy=0;endArrow=none;endFill=0;" edge="1" parent="1" source="UF84lUJFQAQI1_FwRA6l-6" target="UF84lUJFQAQI1_FwRA6l-17">
          <mxGeometry relative="1" as="geometry" />
        </mxCell>
        <mxCell id="UF84lUJFQAQI1_FwRA6l-5" style="edgeStyle=orthogonalEdgeStyle;rounded=0;orthogonalLoop=1;jettySize=auto;html=1;exitX=1;exitY=1;exitDx=0;exitDy=0;entryX=0;entryY=0.5;entryDx=0;entryDy=0;endArrow=none;endFill=0;" edge="1" parent="1" source="UF84lUJFQAQI1_FwRA6l-6" target="UF84lUJFQAQI1_FwRA6l-19">
          <mxGeometry relative="1" as="geometry">
            <Array as="points">
              <mxPoint x="400" y="530" />
              <mxPoint x="400" y="625" />
            </Array>
          </mxGeometry>
        </mxCell>
        <mxCell id="UF84lUJFQAQI1_FwRA6l-6" value="OpenMRS - Core" style="rounded=1;whiteSpace=wrap;html=1;" vertex="1" parent="1">
          <mxGeometry x="199" y="468" width="180" height="62" as="geometry" />
        </mxCell>
        <mxCell id="UF84lUJFQAQI1_FwRA6l-7" value="HAPI FHIR (Java implementation)" style="rounded=1;whiteSpace=wrap;html=1;" vertex="1" parent="1">
          <mxGeometry x="332" y="130" width="190" height="30" as="geometry" />
        </mxCell>
        <mxCell id="UF84lUJFQAQI1_FwRA6l-8" style="edgeStyle=orthogonalEdgeStyle;rounded=0;orthogonalLoop=1;jettySize=auto;html=1;exitX=0;exitY=0.5;exitDx=0;exitDy=0;endArrow=none;endFill=0;" edge="1" parent="1" source="UF84lUJFQAQI1_FwRA6l-9" target="UF84lUJFQAQI1_FwRA6l-6">
          <mxGeometry relative="1" as="geometry" />
        </mxCell>
        <mxCell id="UF84lUJFQAQI1_FwRA6l-9" value="OpenMRS-GPConnect-Module" style="rounded=1;whiteSpace=wrap;html=1;" vertex="1" parent="1">
          <mxGeometry x="469" y="508" width="190" height="30" as="geometry" />
        </mxCell>
        <mxCell id="UF84lUJFQAQI1_FwRA6l-10" value="GPConnect (Standard)" style="rounded=1;whiteSpace=wrap;html=1;" vertex="1" parent="1">
          <mxGeometry x="612" y="238" width="156" height="30" as="geometry" />
        </mxCell>
        <mxCell id="UF84lUJFQAQI1_FwRA6l-11" style="edgeStyle=orthogonalEdgeStyle;rounded=0;orthogonalLoop=1;jettySize=auto;html=1;exitX=1;exitY=0.5;exitDx=0;exitDy=0;endArrow=none;endFill=0;" edge="1" parent="1" source="UF84lUJFQAQI1_FwRA6l-12">
          <mxGeometry relative="1" as="geometry">
            <mxPoint x="690" y="140" as="targetPoint" />
          </mxGeometry>
        </mxCell>
        <mxCell id="UF84lUJFQAQI1_FwRA6l-12" value="HL7 FHIR (Spec)" style="rounded=1;whiteSpace=wrap;html=1;" vertex="1" parent="1">
          <mxGeometry x="332" y="40" width="190" height="30" as="geometry" />
        </mxCell>
        <mxCell id="UF84lUJFQAQI1_FwRA6l-13" style="edgeStyle=orthogonalEdgeStyle;rounded=0;orthogonalLoop=1;jettySize=auto;html=1;exitX=0.5;exitY=1;exitDx=0;exitDy=0;entryX=0.5;entryY=0;entryDx=0;entryDy=0;endArrow=none;endFill=0;" edge="1" parent="1" target="UF84lUJFQAQI1_FwRA6l-10">
          <mxGeometry relative="1" as="geometry">
            <mxPoint x="690" y="200" as="sourcePoint" />
          </mxGeometry>
        </mxCell>
        <mxCell id="UF84lUJFQAQI1_FwRA6l-14" value="Implements &lt;br&gt;80:20&lt;br&gt;Enhances" style="rounded=1;whiteSpace=wrap;html=1;" vertex="1" parent="1">
          <mxGeometry x="640" y="140" width="100" height="60" as="geometry" />
        </mxCell>
        <mxCell id="UF84lUJFQAQI1_FwRA6l-15" value="OpenGP-Distro" style="text;html=1;strokeColor=none;fillColor=none;align=center;verticalAlign=middle;whiteSpace=wrap;rounded=0;" vertex="1" parent="1">
          <mxGeometry x="190" y="440" width="120" height="20" as="geometry" />
        </mxCell>
        <mxCell id="UF84lUJFQAQI1_FwRA6l-16" value="REST-Module" style="rounded=1;whiteSpace=wrap;html=1;" vertex="1" parent="1">
          <mxGeometry x="469" y="550" width="190" height="30" as="geometry" />
        </mxCell>
        <mxCell id="UF84lUJFQAQI1_FwRA6l-17" value="OpenMRS - Core-DB" style="rounded=1;whiteSpace=wrap;html=1;" vertex="1" parent="1">
          <mxGeometry x="199" y="560" width="180" height="40" as="geometry" />
        </mxCell>
        <mxCell id="UF84lUJFQAQI1_FwRA6l-18" style="edgeStyle=orthogonalEdgeStyle;rounded=0;orthogonalLoop=1;jettySize=auto;html=1;exitX=0.5;exitY=0;exitDx=0;exitDy=0;endArrow=none;endFill=0;dashed=1;dashPattern=1 2;" edge="1" parent="1" source="UF84lUJFQAQI1_FwRA6l-19" target="UF84lUJFQAQI1_FwRA6l-16">
          <mxGeometry relative="1" as="geometry" />
        </mxCell>
        <mxCell id="UF84lUJFQAQI1_FwRA6l-19" value="UI (Various modules)" style="rounded=1;whiteSpace=wrap;html=1;" vertex="1" parent="1">
          <mxGeometry x="469" y="610" width="190" height="30" as="geometry" />
        </mxCell>
        <mxCell id="UF84lUJFQAQI1_FwRA6l-20" value="OpenMRS-GPConnect-Module" style="rounded=1;whiteSpace=wrap;html=1;" vertex="1" parent="1">
          <mxGeometry x="360" y="238" width="190" height="30" as="geometry" />
        </mxCell>
        <mxCell id="UF84lUJFQAQI1_FwRA6l-21" value="Context" style="text;html=1;strokeColor=none;fillColor=none;align=center;verticalAlign=middle;whiteSpace=wrap;rounded=0;" vertex="1" parent="1">
          <mxGeometry x="190" y="30" width="120" height="20" as="geometry" />
        </mxCell>
      </root>
    </mxGraphModel>
  </diagram>
</mxfile>
